PathFileType	4	(X/Y/Z)	C:/Users/beibeiliu/ov580/test_trc/User2\sequence.35_training_dense_right.trc
DataRate	CameraRate	NumFrames	NumMarkers	Units	OrigDataRate	OrigDataStartFrame	OrigNumFrames
120	120	14	19	mm	120	85	112
Frame#	Time	ThumbCMC			ThumbMCP			ThumbIP			ThumbTip			IndexMCP			IndexPIP			IndexTip			MiddleMCP			MiddlePIP			MiddleTip			RingMCP			RingPIP			RingTip			PinkyMCP			PinkyPIP			PinkyTip			BackHand1			BackHand2			BackHand3	
		X0	Y0	Z0	X1	Y1	Z1	X2	Y2	Z2	X3	Y3	Z3	X4	Y4	Z4	X5	Y5	Z5	X6	Y6	Z6	X7	Y7	Z7	X8	Y8	Z8	X9	Y9	Z9	X10	Y10	Z10	X11	Y11	Z11	X12	Y12	Z12	X13	Y13	Z13	X14	Y14	Z14	X15	Y15	Z15	X16	Y16	Z16	X17	Y17	Z17	X18	Y18	Z18	
84	0.7	87.6511	61.2642	-21.1703	55.5412	68.6544	-35.196	24.845	64.6347	-56.2659	12.3086	46.8089	-69.5147	46.5952	50.0471	-89.0242	25.3113	37.8878	-67.401	50.3268	41.676	-41.7802	49.6678	24.7659	-87.4206	25.0727	19.7199	-58.1641	56.6045	25.4933	-32.5186	44.4151	5.64277	-76.2043	33.7673	1.50008	-46.6267	64.0737	17.5297	-32.8092	55.5516	-14.1792	-67.9601	42.6988	-8.08445	-35.1961	69.4946	5.7885	-24.1032	108.274	9.22581	-65.806	129.829	6.03282	-36.1308	114.684	39.2957	-48.6916	
85	0.708333	89.64	61.763	-24.4759	60.1279	73.4935	-38.3434	33.8239	66.947	-61.5412	15.6507	55.5468	-77.4455	52.1437	47.5418	-90.7394	25.2742	39.5363	-72.626	49.4111	42.6007	-43.3882	46.8752	25.4972	-89.3423	25.8799	18.4324	-63.6888	56.7602	28.0349	-33.4425	46.1462	0.68502	-76.9852	33.1735	5.74261	-51.089	66.1604	13.2463	-32.85	52.4792	-12.9578	-67.3913	42.3664	-6.50781	-37.9557	72.5249	6.32311	-26.8152	110.524	7.41506	-62.7722	130.074	5.03759	-31.6516	118.206	38.1347	-45.223	
86	0.716667	93.1386	63.7287	-26.6428	67.0323	78.5256	-41.7161	41.1409	75.6562	-70.6099	23.8118	64.2797	-85.2699	52.2438	45.6023	-94.6004	28.3005	39.7033	-77.8889	52.2637	42.2042	-45.5415	51.4593	22.2879	-91.8646	27.517	19.567	-63.2292	58.224	30.2536	-36.8039	45.9672	1.05586	-78.6214	35.3934	8.37255	-50.84	67.9772	18.7501	-37.3259	54.706	-12.6663	-69.0296	43.5494	-2.3204	-39.6657	70.8193	6.45544	-27.0245	109.893	4.68777	-64.7448	132.517	3.61533	-34.7433	119.055	38.6744	-50.0932	
87	0.725	98.5234	62.0965	-26.2707	76.6792	77.731	-50.9358	52.2045	78.5736	-78.3575	36.1421	64.5912	-96.5235	56.07	43.1628	-96.6736	30.7445	40.4139	-79.7274	49.4214	46.8512	-48.4742	51.2039	23.0652	-93.3135	29.6923	24.6115	-66.4411	58.3343	28.4987	-38.5529	48.0235	3.0822	-81.2433	36.5436	6.84765	-52.3258	67.6037	17.366	-38.6409	54.0511	-14.9621	-69.5838	44.9676	-2.27265	-41.4348	75.7038	3.38315	-28.8055	113.407	0.691836	-64.3935	129.462	1.99402	-35.2533	120.899	35.7968	-47.498	
88	0.733333	103.37	61.8215	-27.2194	84.8146	81.311	-53.0837	64.1173	78.6529	-80.5267	47.5494	63.6525	-98.7272	60.6238	42.8796	-97.6641	33.7997	39.7979	-77.7287	57.6245	47.3288	-50.5669	54.164	19.3934	-94.1729	31.8971	22.7863	-68.241	61.6756	32.1859	-39.5015	49.132	6.49819	-81.9229	38.8701	11.4427	-53.4139	73.8021	15.2327	-40.0484	56.2067	-11.8635	-72.0745	45.9432	-1.31978	-40.4958	78.9822	4.75093	-31.0023	111.118	2.1421	-67.1238	130.495	2.46863	-37.2346	123.486	35.8009	-50.8813	
89	0.741667	107.433	60.7488	-34.7298	92.8323	79.4757	-55.6533	72.6728	81.7198	-87.0088	55.9593	67.9214	-101.081	63.9022	44.8637	-99.2992	37.4553	46.1504	-82.5131	62.4457	43.5404	-51.8579	59.0298	20.6174	-95.2515	34.9139	27.3094	-68.0723	66.0323	34.3714	-42.7972	50.9446	6.52105	-83.3228	39.9989	10.2406	-56.4898	72.9365	19.2553	-42.6339	55.113	-13.4919	-71.3445	46.2611	1.40967	-44.6824	75.9312	5.61473	-30.8429	114.384	-3.224	-64.8339	130.991	-3.28998	-36.6374	126.256	35.0885	-54.8476	
90	0.75	110.758	62.4972	-32.4422	98.1768	81.5706	-58.823	78.8641	84.3952	-90.0604	60.2678	72.2822	-106.926	64.2984	48.7539	-101.188	40.2281	43.6165	-82.5776	62.0858	46.2602	-53.9697	62.1671	21.5453	-97.0443	36.7189	28.5501	-70.6752	64.2405	32.4535	-42.885	54.4847	3.77081	-84.4716	43.1056	13.8693	-54.8738	77.2433	17.0661	-43.9832	57.9932	-11.3284	-72.4802	48.083	0.163637	-42.2948	76.6641	6.01163	-33.3826	114.216	-0.266558	-68.4121	133.78	0.751318	-33.0259	128.454	35.7106	-54.6361	
91	0.758333	110.939	59.4928	-32.6417	100.371	82.6224	-58.1572	81.0991	87.571	-82.2685	63.131	78.8735	-104.895	64.4986	45.6452	-99.5322	39.8114	46.0145	-77.4696	64.9541	46.1727	-53.3708	60.3272	23.1111	-96.675	36.7594	28.0688	-67.3484	66.9854	32.7853	-43.3669	52.9721	6.42215	-84.4181	42.5102	11.8076	-53.2242	74.7315	18.7939	-43.956	57.1521	-13.8942	-71.8974	49.6255	2.21835	-41.8355	77.5907	6.38538	-32.9553	114.996	-1.14515	-69.078	134.011	-1.78585	-35.0702	128.228	35.2039	-51.2112	
92	0.766667	110.533	61.7734	-34.2996	98.8573	79.2767	-54.8313	81.5763	91.5275	-82.6943	63.9436	78.6715	-101.537	63.6411	48.474	-98.5655	38.5149	46.2061	-76.5183	65.1429	44.8515	-52.6716	59.9084	23.5348	-97.3065	36.5001	29.2568	-69.109	65.3319	28.6261	-43.3969	53.4823	7.23242	-84.0495	39.6174	10.992	-57.4805	77.8967	15.7209	-43.2789	53.9643	-11.5417	-71.3051	47.3135	1.96226	-44.847	79.7421	7.51614	-33.1364	115.558	-1.52011	-67.6806	134.671	-2.75608	-34.2013	126.257	34.7567	-51.1425	
93	0.775	110.87	61.9206	-33.0245	98.6792	83.9444	-52.9233	81.308	91.8869	-85.0286	62.9288	86.4292	-104.509	64.5392	48.7379	-98.7142	37.7695	48.4748	-79.3947	65.1823	44.1978	-52.5741	61.9448	26.7224	-97.5564	36.3446	25.7312	-67.0965	67.5941	32.351	-43.978	52.8712	7.16333	-83.372	40.71	11.8956	-57.6666	71.9253	19.9805	-42.4879	56.6033	-10.0771	-71.5877	47.822	0.832884	-42.2854	80.0919	6.00004	-32.9693	114.965	-2.23894	-69.0427	134.472	2.63201	-32.9891	127.633	36.1985	-55.13	
94	0.783333	109.278	62.1948	-28.6744	96.9627	85.0257	-49.3579	78.6561	95.3382	-82.3641	60.0249	84.8793	-102.917	62.9687	47.0673	-98.147	37.7562	45.0886	-77.5054	61.4026	48.6459	-51.551	59.6908	26.3396	-97.2856	36.2277	27.1615	-67.7316	67.8447	32.1992	-43.3788	52.3385	6.2341	-84.2818	40.6944	10.07	-56.7484	72.5417	16.246	-40.0191	60.3603	-7.74825	-73.0731	48.8224	3.17045	-44.0493	82.204	7.10481	-32.7036	114.394	0.0340088	-67.7724	132.375	1.24042	-38.38	129.07	39.3888	-50.8969	
95	0.791667	107.494	66.2026	-29.5391	94.4401	87.7374	-48.7285	74.0071	96.0239	-81.4691	57.9031	85.5874	-97.6083	63.8431	51.2395	-97.4692	36.6204	45.1079	-77.8438	59.4604	48.1838	-51.2664	61.2091	23.8113	-96.2248	34.1429	27.1116	-69.5695	63.9505	30.2173	-42.0813	54.744	8.21282	-84.823	39.7709	11.8186	-57.4044	71.5717	18.0741	-39.7366	58.3539	-7.21727	-73.0325	49.5284	1.88415	-41.5191	78.6431	6.1293	-32.3592	116.557	4.5052	-67.7805	134.179	3.54928	-37.5541	125.476	37.6966	-53.6188	
96	0.8	105.774	67.7839	-28.3224	89.7227	83.0949	-48.8728	70.5614	94.4936	-73.8327	52.6351	86.7277	-95.2257	60.7144	52.6053	-96.2426	33.9363	48.0065	-78.7034	56.5268	42.9352	-49.4878	55.1033	28.1147	-95.7145	33.0538	23.1582	-68.3649	58.7284	30.948	-40.4916	55.131	5.30442	-83.8644	40.219	10.7509	-53.9015	71.251	21.7946	-39.6141	58.8546	-12.5605	-73.1979	49.0823	3.30248	-43.3431	74.8782	6.66858	-28.5958	116.165	7.20735	-65.3225	133.804	8.17075	-37.4857	126.03	41.3161	-48.3902	
97	0.808333	101.876	68.8471	-25.6353	86.2101	83.5694	-43.9842	64.8339	98.5657	-68.7824	47.3423	85.2581	-90.3512	60.3773	50.1834	-95.7385	33.4015	44.0091	-78.7412	52.9415	42.4412	-48.7015	54.8051	29.2393	-96.6267	31.0657	25.3862	-71.289	57.2665	29.5231	-39.3519	51.9347	6.25047	-84.9108	37.3497	5.50726	-59.2566	65.9105	14.8357	-37.3118	60.5818	-8.89063	-74.9117	46.6342	-3.44963	-42.9585	74.6111	4.31632	-27.2592	115.3	7.15217	-67.1855	135.031	9.29028	-38.1894	123.163	44.6269	-49.0486	
